<?xml version="1.0" encoding="UTF-8"?>
<svg id="Layer_1" xmlns="http://www.w3.org/2000/svg" version="1.1" viewBox="0 0 410 410">
  <!-- Generator: Adobe Illustrator 30.1.0, SVG Export Plug-In . SVG Version: 2.1.1 Build 136)  -->
  <defs>
    <style>
      .st0 {
        fill: #7b1f3d;
      }
    </style>
  </defs>
  <path class="st0" d="M287.97,285.99c-3.32-.23-9.65-2.18-12.14-3.87-3.12-2.12-4.4-2.82-7.46-5.78-1.08-1.05-4.16-4.76-4.72-5.76-1.5-2.69-3.2-6.24-4.11-9.05.06.18-1.06-5.05-1.06-4.92-.08-1.44-.23-3.19-.23-4.93l.02-93.14c0-7.38,2.29-14.24,6.5-19.99,3.3-4.49,8.39-9.2,13.56-11.31,2.75-1.12,5.73-2.39,8.77-2.66l4.16-.36c3.2-.28,1.21.17,5,.27,5.86.16,13.11,3.8,17.62,7.55,6.4,5.33,10.27,12.07,11.93,20.36.18.93.7,2.47.7,3.43l.05,57.89c-.13.74-.75,2.05-1.47,2.23l-44.08.03v35.49c.01,1.86,1.1,3.66,1.7,5.28,1.38,3.18,4.27,4.68,7.45,5.66,2.64.81,5.41.14,7.67-1.51,7.19-5.26,3.57-7.51,7.01-9.98l19.92.11c1.97.01,1.75,2.72,1.62,3.9-.4,3.69-1.08,6.82-2.5,10.17-.43,1.01-.8,2.14-1.39,3.04-1.25,1.92-2.37,3.67-3.8,5.52-3.94,5.12-9.31,9.62-15.68,11-3.69.8-10.6,1.62-15.03,1.32h-.01ZM303.5,192.11l-.13-33.88c-.01-3.04-1.93-5.73-4.09-7.53-5.08-4.22-12.7-3.17-16.25,2.72-.91,1.51-1.99,3.79-1.99,5.72l-.02,32.99h22.49v-.02Z"/>
  <path class="st0" d="M403.9,250.95c.88,0,1.69.76,1.69,1.53.01,3.62-.45,7.54-1.73,10.75-1.2,3.02-2.97,6.89-5.02,9.44-1.75,2.18-5.72,6.29-8.05,7.82-1.51.99-5.14,3.03-6.61,3.5l-6.2,1.98-5.69.19c-5.75.2-11.37-.82-16.32-3.66-1.9-1.09-3.82-2.03-5.48-3.5-7.9-6.97-10.92-12.81-12.99-23.43v-100.36l1.11-4.96c1.09-4.81,3.24-9.17,6.4-12.95l1.26-1.5c4.67-5.59,11.23-9.37,18.57-10.85,4.78-.97,2.57.15,5.94-.76l5.9.51c2.44.21,6.23,1.37,8.67,2.4,3.07,1.3,5.58,3.39,8.28,5.35,1.52,1.1,2.92,2.61,3.99,4.12l2.66,3.74c2.05,2.89,3.45,6.37,4.36,9.84.48,1.82,1.44,7.41.56,8.72-.31.46-1.37.82-2.05.82l-18.96-.03c-2.21,0-1.32-6.07-6.34-9.42s-10.31-2.81-14.59,1.87c-2.27,2.48-2.86,5.33-2.86,8.79l.02,91.19c0,5.11,5.47,10.5,10.83,10.59,5.73.09,10.19-4.57,11.24-9.83.23-1.15,1.02-1.91,2.16-1.91h19.25Z"/>
  <g>
    <path class="st0" d="M245.88,126.83l-19.93.02c-.74,0-1.7.88-1.7,2.04v121.85c0,2.1-.29,3.64-1.14,5.4-2.09,4.33-7.58,7.83-12.6,6.25-4.28-1.34-8.55-5.76-8.56-9.85l-.13-121.85c0-1.57.55-3.22-1.15-3.92l-20.63.08c-1.14.35-.89,2.05-.89,3.19v117.96c.01,6.6-1.99,12.36-8.58,14.27-2.03.59-3.84.76-5.96-.09-2.32-.93-4.66-2.46-6.11-4.74-.82-1.28-1.26-3.04-1.83-4.7v-123.07c0-1.02-.52-2.81-1.61-2.81l-18.74-.04c-.74,0-1.56.11-2.03.53-.39.35-.66,1.14-.66,1.99l.05,125.11c0,3.09,1.98,9.42,3.38,12.37,2.21,4.65,5.39,8.88,9.49,12.07,4.52,3.51,9.69,6.19,15.28,6.97,10.48,1.45,18.02-.71,26.29-6.65.79-.57,1.76-1.69,2.52-1.49,5.33,3.89,10.47,7.36,16.96,8.14,5.83.7,13.28.4,18.47-1.98,4.87-2.23,9.23-5.15,12.54-9.22,2.73-3.35,4.89-6.77,6.42-10.77,1.16-3.04,2.19-8.02,2.19-11.45v-122.77c.01-.96-.09-2.85-1.36-2.85h.02Z"/>
    <path class="st0" d="M295.61,33.47c-2.4-16.12-10.73-23.64-17.95-27.6C267.81-.12,259.45-.35,250.65-.1c-15.04,0-28.42,10.24-33.57,14.6-14.34,11.51-21.75,33.1-26.64,43.93-4.89-10.83-12.29-32.42-26.64-43.93C158.65,10.14,145.27-.1,130.23-.1c-8.8-.25-17.16-.02-27.01,5.97-7.22,3.95-15.54,11.48-17.95,27.6-1.21,7.64,3.2,23.08,7.59,29.45,3.6,5.23,11.76,11.36,21.19,13.98,5.08,1.41,12.58,2.22,21.01,1.88,17.59-.72,25.1-10.87,27.42-17.61,2.3-6.65-2.78-11.92-6.54-7.16-1.46,2.6-11.89,23.25-24.81-1.43,1.03-1.94,1.71-25-26.83-18.06-3.07-2.62-5.25-10.17.95-16.1,7.79-9.15,33.98-6.82,45.67.63,33.92,21.59,34.45,68.93,34.45,68.93v38.8h10.16v-38.8s.53-47.34,34.45-68.93c11.69-7.45,37.88-9.77,45.67-.63,6.2,5.93,4.02,13.49.95,16.1-28.54-6.94-27.86,16.12-26.83,18.06-12.92,24.67-23.35,4.03-24.81,1.43-3.76-4.76-8.84.51-6.54,7.16,2.33,6.74,9.84,16.89,27.42,17.61,8.43.34,15.93-.47,21.01-1.88,9.43-2.62,17.59-8.76,21.19-13.98,4.39-6.37,8.8-21.81,7.59-29.45h-.02Z"/>
  </g>
  <polyline class="st0" points="297.94 286.18 292.88 286.18 287.81 286.18"/>
  <path class="st0" d="M120.53,126.56h-18.67c-1.11,0-2.01.9-2.01,2.01v25.42h-28.68s-36.22-.44-52.74-28.89c-5.7-9.81-7.48-31.77-.48-38.3,4.54-5.2,10.32-3.37,12.32-.79-5.31,23.94,12.33,23.36,13.82,22.5,18.88,10.83,3.09,19.58,1.09,20.81-3.65,3.16.39,7.41,5.48,5.49,5.16-1.95,12.93-8.25,13.47-23,.26-7.07-.36-13.36-1.44-17.62-2.01-7.9-6.7-14.75-10.7-17.77-4.87-3.68-16.69-7.38-22.53-6.37-12.34,2.02-18.09,9-21.12,15.05-4.59,8.26-4.76,15.28-4.57,22.65,0,12.61,7.83,23.83,11.17,28.15,8.8,12.03,25.33,18.24,33.61,22.34-8.28,4.1-24.81,10.31-33.61,22.34-3.34,4.32-11.17,15.54-11.17,28.15-.19,7.38-.02,14.39,4.57,22.65,3.02,6.05,8.78,13.04,21.12,15.05,5.84,1.01,17.66-2.68,22.53-6.37,4-3.02,8.69-9.87,10.7-17.77,1.08-4.26,1.7-10.55,1.44-17.62-.55-14.75-8.32-21.05-13.47-23-5.09-1.93-9.12,2.33-5.48,5.49,1.99,1.22,17.79,9.97-1.09,20.81-1.49-.86-19.13-1.43-13.82,22.5-2,2.57-7.79,4.4-12.32-.79-7-6.54-5.22-28.5.48-38.3,16.52-28.44,52.74-28.89,52.74-28.89h28.68v121.76c0,1.11.9,2.01,2.01,2.01h18.67c1.11,0,2.01-.9,2.01-2.01v-155.71c0-1.11-.9-2.01-2.01-2.01v.03Z"/>
  <path class="st0" d="M398.04,376.84c-2.4,16.12-10.73,23.64-17.95,27.6-9.85,5.99-18.21,6.22-27.01,5.97-15.04,0-28.42-10.24-33.57-14.6-14.34-11.51-21.75-33.1-26.64-43.93-4.89,10.83-12.29,32.42-26.64,43.93-5.15,4.36-18.53,14.6-33.57,14.6-8.8.25-17.16.02-27.01-5.97-7.22-3.95-15.54-11.48-17.95-27.6-1.21-7.64,3.2-23.08,7.59-29.45,3.6-5.23,11.76-11.36,21.19-13.98,5.08-1.41,12.58-2.22,21.01-1.88,17.59.72,25.1,10.87,27.42,17.61,2.3,6.65-2.78,11.92-6.54,7.16-1.46-2.6-11.89-23.25-24.81,1.43,1.03,1.94,1.71,25-26.83,18.06-3.07,2.62-5.25,10.17.95,16.1,7.79,9.15,33.98,6.82,45.67-.63,33.92-21.59,34.45-68.93,34.45-68.93v-38.8h10.16v38.8s.53,47.34,34.45,68.93c11.69,7.45,37.88,9.77,45.67.63,6.2-5.93,4.02-13.49.95-16.1-28.54,6.94-27.86-16.12-26.83-18.06-12.92-24.67-23.35-4.03-24.81-1.43-3.76,4.76-8.84-.51-6.54-7.16,2.33-6.74,9.84-16.89,27.42-17.61,8.43-.34,15.93.47,21.01,1.88,9.43,2.62,17.59,8.76,21.19,13.98,4.39,6.37,8.8,21.81,7.59,29.45h-.02Z"/>
</svg>